<svg width="300" height="80" viewBox="0 0 300 80" fill="none" xmlns="http://www.w3.org/2000/svg">
<path d="M0 0L2.08333 9.325C4.16667 18.75 8.33333 37.25 12.5 38.675C16.6667 40 20.8333 24 25 20C29.1667 16 33.3333 24 37.5 24C41.6667 24 45.8333 16 50 18.675C54.1667 21.25 58.3333 34.75 62.5 37.325C66.6667 40 70.8333 32 75 34.675C79.1667 37.25 83.3333 50.75 87.5 57.325C91.6667 64 95.8333 64 100 57.325C104.167 50.75 108.333 37.25 112.5 34.675C116.667 32 120.833 40 125 38.675C129.167 37.25 133.333 26.75 137.5 28C141.667 29.25 145.833 42.75 150 49.325C154.167 56 158.333 56 162.5 54.675C166.667 53.25 170.833 50.75 175 52C179.167 53.25 183.333 58.75 187.5 64C191.667 69.25 195.833 74.75 200 70.675C204.167 66.75 208.333 53.25 212.5 48C216.667 42.75 220.833 45.25 225 41.325C229.167 37.25 233.333 26.75 237.5 26.675C241.667 26.75 245.833 37.25 250 44C254.167 50.75 258.333 53.25 262.5 57.325C266.667 61.25 270.833 66.75 275 61.325C279.167 56 283.333 40 287.5 32C291.667 24 295.833 24 297.917 24H300V80H297.917C295.833 80 291.667 80 287.5 80C283.333 80 279.167 80 275 80C270.833 80 266.667 80 262.5 80C258.333 80 254.167 80 250 80C245.833 80 241.667 80 237.5 80C233.333 80 229.167 80 225 80C220.833 80 216.667 80 212.5 80C208.333 80 204.167 80 200 80C195.833 80 191.667 80 187.5 80C183.333 80 179.167 80 175 80C170.833 80 166.667 80 162.5 80C158.333 80 154.167 80 150 80C145.833 80 141.667 80 137.5 80C133.333 80 129.167 80 125 80C120.833 80 116.667 80 112.5 80C108.333 80 104.167 80 100 80C95.8333 80 91.6667 80 87.5 80C83.3333 80 79.1667 80 75 80C70.8333 80 66.6667 80 62.5 80C58.3333 80 54.1667 80 50 80C45.8333 80 41.6667 80 37.5 80C33.3333 80 29.1667 80 25 80C20.8333 80 16.6667 80 12.5 80C8.33333 80 4.16667 80 2.08333 80H0V0Z" fill="#5ECCA2" fill-opacity="0.2"/>
<path d="M0 0L2.08333 9.325C4.16667 18.75 8.33333 37.25 12.5 38.675C16.6667 40 20.8333 24 25 20C29.1667 16 33.3333 24 37.5 24C41.6667 24 45.8333 16 50 18.675C54.1667 21.25 58.3333 34.75 62.5 37.325C66.6667 40 70.8333 32 75 34.675C79.1667 37.25 83.3333 50.75 87.5 57.325C91.6667 64 95.8333 64 100 57.325C104.167 50.75 108.333 37.25 112.5 34.675C116.667 32 120.833 40 125 38.675C129.167 37.25 133.333 26.75 137.5 28C141.667 29.25 145.833 42.75 150 49.325C154.167 56 158.333 56 162.5 54.675C166.667 53.25 170.833 50.75 175 52C179.167 53.25 183.333 58.75 187.5 64C191.667 69.25 195.833 74.75 200 70.675C204.167 66.75 208.333 53.25 212.5 48C216.667 42.75 220.833 45.25 225 41.325C229.167 37.25 233.333 26.75 237.5 26.675C241.667 26.75 245.833 37.25 250 44C254.167 50.75 258.333 53.25 262.5 57.325C266.667 61.25 270.833 66.75 275 61.325C279.167 56 283.333 40 287.5 32C291.667 24 295.833 24 297.917 24H300V80H297.917C295.833 80 291.667 80 287.5 80C283.333 80 279.167 80 275 80C270.833 80 266.667 80 262.5 80C258.333 80 254.167 80 250 80C245.833 80 241.667 80 237.5 80C233.333 80 229.167 80 225 80C220.833 80 216.667 80 212.5 80C208.333 80 204.167 80 200 80C195.833 80 191.667 80 187.5 80C183.333 80 179.167 80 175 80C170.833 80 166.667 80 162.5 80C158.333 80 154.167 80 150 80C145.833 80 141.667 80 137.5 80C133.333 80 129.167 80 125 80C120.833 80 116.667 80 112.5 80C108.333 80 104.167 80 100 80C95.8333 80 91.6667 80 87.5 80C83.3333 80 79.1667 80 75 80C70.8333 80 66.6667 80 62.5 80C58.3333 80 54.1667 80 50 80C45.8333 80 41.6667 80 37.5 80C33.3333 80 29.1667 80 25 80C20.8333 80 16.6667 80 12.5 80C8.33333 80 4.16667 80 2.08333 80H0V0Z" fill="#5ECCA2" fill-opacity="0.2"/>
<path d="M-12.2642 74.2541L-5.50315 68.4174C1.25785 62.5808 14.7799 50.9076 28.3019 48.956C41.8239 47.0774 55.3459 54.7379 68.8679 56.7442C82.3899 58.7506 95.9119 54.7379 109.434 48.956C122.956 43.0647 136.478 35.4042 150 37.2828C163.522 39.2344 177.044 50.9076 190.566 54.7926C204.088 58.7506 217.61 54.7379 231.132 49.941C244.654 45.071 258.176 39.2344 271.698 43.1194C285.22 47.0774 298.742 60.5745 305.503 67.4508L312.264 74.2541V80.0907H305.503C298.742 80.0907 285.22 80.0907 271.698 80.0907C258.176 80.0907 244.654 80.0907 231.132 80.0907C217.61 80.0907 204.088 80.0907 190.566 80.0907C177.044 80.0907 163.522 80.0907 150 80.0907C136.478 80.0907 122.956 80.0907 109.434 80.0907C95.9119 80.0907 82.3899 80.0907 68.8679 80.0907C55.3459 80.0907 41.8239 80.0907 28.3019 80.0907C14.7799 80.0907 1.25785 80.0907 -5.50315 80.0907H-12.2642V74.2541Z" fill="#5ECCA2" fill-opacity="0.4"/>
</svg>
